<svg width="12" height="6" viewBox="0 0 12 6" fill="none" xmlns="http://www.w3.org/2000/svg">
<path d="M10.3732 0.660276L5.99998 4.92328L1.62673 0.660276C1.54859 0.58395 1.4437 0.541219 1.33447 0.541219C1.22525 0.541219 1.12036 0.58395 1.04223 0.660276C1.00439 0.697345 0.974336 0.74159 0.953817 0.790421C0.933298 0.839251 0.922729 0.891685 0.922729 0.944651C0.922729 0.997618 0.933298 1.05005 0.953817 1.09888C0.974336 1.14771 1.00439 1.19196 1.04223 1.22903L5.6946 5.76503C5.7763 5.84466 5.88588 5.88923 5.99998 5.88923C6.11407 5.88923 6.22365 5.84466 6.30535 5.76503L10.9577 1.2299C10.9958 1.1928 11.0261 1.14845 11.0468 1.09946C11.0675 1.05047 11.0781 0.997828 11.0781 0.944651C11.0781 0.891474 11.0675 0.838836 11.0468 0.789843C11.0261 0.740851 10.9958 0.696498 10.9577 0.659401C10.8796 0.583075 10.7747 0.540344 10.6655 0.540344C10.5562 0.540344 10.4514 0.583075 10.3732 0.659401V0.660276Z" fill="black"/>
</svg>
