<svg width="83" height="76" viewBox="0 0 83 76" fill="none" xmlns="http://www.w3.org/2000/svg">
<rect x="12" y="14.7998" width="52.2" height="52.2" rx="26.1" fill="#F9E7EA"/>
<path d="M40.0938 11.7188V21.2344H42.8125V14.4375H45.5312V15.7969H48.25V14.4375H60.4844V15.7969H63.2031V14.4375H65.9219V30.75H63.2031V29.3906H60.4844V33.4688H68.6406V11.7188H40.0938ZM45.5312 18.5156V21.2344H48.25V18.5156H45.5312ZM60.4844 18.5156V21.2344H63.2031V18.5156H60.4844ZM29.2188 23.9531V48.4219H57.7656V23.9531H29.2188ZM60.4844 23.9531V26.6719H63.2031V23.9531H60.4844ZM31.9375 26.6719H55.0469V39.9679L51.5207 36.4431L50.5446 35.5078L46.7207 39.3317L40.9012 33.4688L39.966 32.4914L31.9375 40.5212V26.6719ZM47.5703 29.3906C47.2982 29.3835 47.0274 29.4309 46.7739 29.5301C46.5204 29.6293 46.2894 29.7783 46.0944 29.9682C45.8994 30.1581 45.7444 30.3851 45.6385 30.6359C45.5326 30.8867 45.478 31.1561 45.4779 31.4283C45.4778 31.7005 45.5323 31.97 45.638 32.2208C45.7437 32.4717 45.8985 32.6988 46.0934 32.8888C46.2883 33.0789 46.5192 33.228 46.7727 33.3273C47.0261 33.4267 47.2968 33.4743 47.569 33.4674C48.1005 33.4538 48.6057 33.2332 48.9768 32.8526C49.348 32.4719 49.5559 31.9613 49.5561 31.4297C49.5562 30.898 49.3487 30.3873 48.9778 30.0064C48.6069 29.6255 48.1018 29.4045 47.5703 29.3906ZM39.9633 36.3574L46.7601 43.1543L47.6981 42.1769L50.5446 39.3317L55.0469 43.834V45.7031H31.9375V44.3859L39.9633 36.3574Z" fill="black"/>
</svg>
