<svg width="40" height="40" viewBox="0 0 40 40" fill="none" xmlns="http://www.w3.org/2000/svg">
<rect y="4" width="36" height="36" rx="18" fill="#D9D3F2"/>
<path d="M32.6675 13.75C33.3938 20.4688 36.25 22.5 36.25 22.5H13.75C13.75 22.5 17.5 19.8337 17.5 10.5C17.5 8.37875 18.29 6.34375 19.6962 4.84375C21.1025 3.34375 23.0125 2.5 25 2.5C25.4225 2.5 25.8392 2.5375 26.25 2.6125M27.1625 26.25C26.9427 26.6288 26.6273 26.9433 26.2478 27.1619C25.8683 27.3805 25.438 27.4956 25 27.4956C24.562 27.4956 24.1317 27.3805 23.7522 27.1619C23.3727 26.9433 23.0573 26.6288 22.8375 26.25M33.75 10C34.7446 10 35.6984 9.60491 36.4017 8.90165C37.1049 8.19839 37.5 7.24456 37.5 6.25C37.5 5.25544 37.1049 4.30161 36.4017 3.59835C35.6984 2.89509 34.7446 2.5 33.75 2.5C32.7554 2.5 31.8016 2.89509 31.0983 3.59835C30.3951 4.30161 30 5.25544 30 6.25C30 7.24456 30.3951 8.19839 31.0983 8.90165C31.8016 9.60491 32.7554 10 33.75 10Z" stroke="black" stroke-width="2" stroke-linecap="round" stroke-linejoin="round"/>
</svg>
