<svg width="83" height="76" viewBox="0 0 83 76" fill="none" xmlns="http://www.w3.org/2000/svg">
<rect x="12" y="14.8" width="52.2" height="52.2" rx="26.1" fill="#D9D3F2"/>
<path d="M59.3679 28.9375C60.4209 38.6797 64.5625 41.625 64.5625 41.625H31.9375C31.9375 41.625 37.375 37.7589 37.375 24.225C37.375 21.1492 38.5205 18.1984 40.5596 16.0234C42.5986 13.8484 45.3681 12.625 48.25 12.625C48.8626 12.625 49.4668 12.6794 50.0625 12.7881M51.3856 47.0625C51.067 47.6118 50.6096 48.0678 50.0593 48.3848C49.509 48.7017 48.8851 48.8686 48.25 48.8686C47.6149 48.8686 46.991 48.7017 46.4407 48.3848C45.8904 48.0678 45.433 47.6118 45.1144 47.0625M60.9375 23.5C62.3796 23.5 63.7627 22.9271 64.7824 21.9074C65.8021 20.8877 66.375 19.5046 66.375 18.0625C66.375 16.6204 65.8021 15.2373 64.7824 14.2176C63.7627 13.1979 62.3796 12.625 60.9375 12.625C59.4954 12.625 58.1123 13.1979 57.0926 14.2176C56.0729 15.2373 55.5 16.6204 55.5 18.0625C55.5 19.5046 56.0729 20.8877 57.0926 21.9074C58.1123 22.9271 59.4954 23.5 60.9375 23.5Z" stroke="black" stroke-width="2" stroke-linecap="round" stroke-linejoin="round"/>
</svg>
