<svg width="40" height="40" viewBox="0 0 40 40" fill="none" xmlns="http://www.w3.org/2000/svg">
<rect y="4" width="36" height="36" rx="18" fill="#FFBAC6"/>
<path d="M31.25 3.125H15C14.5027 3.125 14.0258 3.32254 13.6742 3.67417C13.3225 4.02581 13.125 4.50272 13.125 5V21.25C13.125 21.7473 13.3225 22.2242 13.6742 22.5758C14.0258 22.9275 14.5027 23.125 15 23.125H31.25C31.7473 23.125 32.2242 22.9275 32.5758 22.5758C32.9275 22.2242 33.125 21.7473 33.125 21.25V5C33.125 4.50272 32.9275 4.02581 32.5758 3.67417C32.2242 3.32254 31.7473 3.125 31.25 3.125Z" stroke="black" stroke-width="2" stroke-linejoin="round"/>
<path d="M37.5 8.12625V26.25C37.5 26.5815 37.3683 26.8995 37.1339 27.1339C36.8995 27.3683 36.5815 27.5 36.25 27.5H18.1269M18.125 12.8038L21.875 16.2569L28.125 9.82438" stroke="black" stroke-width="2" stroke-linecap="round" stroke-linejoin="round"/>
</svg>
