<svg width="40" height="40" viewBox="0 0 40 40" fill="none" xmlns="http://www.w3.org/2000/svg">
<rect y="4" width="36" height="36" rx="18" fill="#EAE9E9"/>
<g clip-path="url(#clip0_833_305)">
<path d="M27.8125 9.84375C27.812 9.68546 27.7659 9.53068 27.6798 9.39786C27.5937 9.26504 27.4712 9.1598 27.3269 9.09468C27.4199 8.96641 27.4738 8.81393 27.482 8.65568C27.4903 8.49743 27.4525 8.34018 27.3733 8.20294C27.294 8.06571 27.1767 7.95436 27.0356 7.88235C26.8944 7.81034 26.7354 7.78076 26.5778 7.79718C26.5945 7.6395 26.565 7.48037 26.4931 7.33906C26.4212 7.19775 26.3098 7.08031 26.1726 7.00096C26.0353 6.92161 25.8779 6.88375 25.7196 6.89195C25.5612 6.90015 25.4087 6.95407 25.2803 7.04718C25.2157 6.9025 25.1106 6.77962 24.9777 6.69338C24.8448 6.60715 24.6897 6.56126 24.5313 6.56126C24.3728 6.56126 24.2178 6.60715 24.0848 6.69338C23.9519 6.77962 23.8468 6.9025 23.7822 7.04718C23.6539 6.95407 23.5013 6.90015 23.3429 6.89195C23.1846 6.88375 23.0272 6.92161 22.89 7.00096C22.7527 7.08031 22.6414 7.19775 22.5694 7.33906C22.4975 7.48037 22.4681 7.6395 22.4847 7.79718C22.327 7.78056 22.1679 7.80999 22.0266 7.88191C21.8853 7.95384 21.7678 8.06518 21.6885 8.20245C21.6091 8.33973 21.5713 8.49706 21.5795 8.65541C21.5877 8.81376 21.6416 8.96634 21.7347 9.09468C21.59 9.15927 21.4671 9.26438 21.3809 9.39731C21.2947 9.53024 21.2488 9.6853 21.2488 9.84375C21.2488 10.0022 21.2947 10.1573 21.3809 10.2902C21.4671 10.4231 21.59 10.5282 21.7347 10.5928C21.6416 10.7212 21.5877 10.8737 21.5795 11.0321C21.5713 11.1904 21.6091 11.3478 21.6885 11.485C21.7678 11.6223 21.8853 11.7337 22.0266 11.8056C22.1679 11.8775 22.327 11.9069 22.4847 11.8903C22.4681 12.048 22.4975 12.2071 22.5694 12.3484C22.6414 12.4897 22.7527 12.6072 22.89 12.6865C23.0272 12.7659 23.1846 12.8037 23.3429 12.7955C23.5013 12.7873 23.6539 12.7334 23.7822 12.6403C23.8468 12.785 23.9519 12.9079 24.0848 12.9941C24.2178 13.0803 24.3728 13.1262 24.5313 13.1262C24.6897 13.1262 24.8448 13.0803 24.9777 12.9941C25.1106 12.9079 25.2157 12.785 25.2803 12.6403C25.4087 12.7334 25.5612 12.7873 25.7196 12.7955C25.8779 12.8037 26.0353 12.7659 26.1726 12.6865C26.3098 12.6072 26.4212 12.4897 26.4931 12.3484C26.565 12.2071 26.5945 12.048 26.5778 11.8903C26.7355 11.9069 26.8946 11.8775 27.0359 11.8056C27.1773 11.7337 27.2947 11.6223 27.374 11.485C27.4534 11.3478 27.4913 11.1904 27.4831 11.0321C27.4749 10.8737 27.4209 10.7212 27.3278 10.5928C27.4719 10.5276 27.5942 10.4223 27.6802 10.2894C27.7661 10.1566 27.812 10.0019 27.8125 9.84375ZM24.5313 12.1875C23.9097 12.1875 23.3135 11.9406 22.874 11.501C22.4344 11.0615 22.1875 10.4653 22.1875 9.84375C22.1875 9.22215 22.4344 8.626 22.874 8.18647C23.3135 7.74693 23.9097 7.5 24.5313 7.5C25.1529 7.5 25.749 7.74693 26.1885 8.18647C26.6281 8.626 26.875 9.22215 26.875 9.84375C26.875 10.4653 26.6281 11.0615 26.1885 11.501C25.749 11.9406 25.1529 12.1875 24.5313 12.1875Z" fill="black"/>
<path d="M35.3125 25.3125H14.6875V4.6875H35.3125V25.3125ZM34.0628 8.54438C34.1579 8.42679 34.2623 8.31705 34.375 8.21625V5.625H15.625V8.59688C16.1528 8.78438 16.6075 9.12375 16.9375 9.5625C17.0768 9.45804 17.2424 9.39442 17.4158 9.37879C17.5892 9.36315 17.7635 9.39611 17.9193 9.47397C18.075 9.55184 18.206 9.67152 18.2975 9.81963C18.389 9.96773 18.4375 10.1384 18.4375 10.3125C18.9348 10.3125 19.4117 10.51 19.7633 10.8617C20.115 11.2133 20.3125 11.6902 20.3125 12.1875C20.3125 12.6848 20.115 13.1617 19.7633 13.5133C19.4117 13.865 18.9348 14.0625 18.4375 14.0625H15.625V16.2956L17.0509 15.5831C18.0934 14.9738 19.8822 14.6737 21.6691 15.5672L25.4191 17.4422C25.5719 17.5191 25.645 17.5266 25.6656 17.5275C25.6769 17.5275 25.6975 17.5284 25.7528 17.5012C25.8231 17.4666 25.9281 17.3953 26.0931 17.25C26.2572 17.1037 26.44 16.9219 26.6809 16.6809L29.3894 13.9725C29.0378 13.5446 28.8204 13.0224 28.7644 12.4714C28.7084 11.9204 28.8163 11.3652 29.0746 10.8753C29.333 10.3854 29.7302 9.98265 30.2164 9.71759C30.7027 9.45253 31.2564 9.33694 31.8081 9.38531C32.0256 9.00291 32.3706 8.70915 32.7828 8.55542C33.1949 8.40169 33.648 8.39778 34.0628 8.54438ZM31.5625 13.125L27.3438 17.3438C26.4062 18.2812 25.9375 18.75 25 18.2812L21.25 16.4062C19.75 15.6562 18.2809 15.9375 17.5 16.4062L15.625 17.3438V24.2878C18.0072 22.3453 21.3278 21.0938 25 21.0938C28.6722 21.0938 31.9928 22.3453 34.375 24.2878V11.3362C33.4328 11.5266 32.6341 12.0534 31.5625 13.125Z" fill="black"/>
<path d="M10.9375 1.875C10.9375 1.62636 11.0363 1.3879 11.2121 1.21209C11.3879 1.03627 11.6264 0.9375 11.875 0.9375H38.125C38.3736 0.9375 38.6121 1.03627 38.7879 1.21209C38.9637 1.3879 39.0625 1.62636 39.0625 1.875V28.125C39.0625 28.3736 38.9637 28.6121 38.7879 28.7879C38.6121 28.9637 38.3736 29.0625 38.125 29.0625H11.875C11.6264 29.0625 11.3879 28.9637 11.2121 28.7879C11.0363 28.6121 10.9375 28.3736 10.9375 28.125V1.875ZM12.8125 2.8125V27.1875H37.1875V2.8125H12.8125Z" fill="black"/>
</g>
<defs>
<clipPath id="clip0_833_305">
<rect width="30" height="30" fill="white" transform="translate(10)"/>
</clipPath>
</defs>
</svg>
