<svg width="40" height="40" viewBox="0 0 40 40" fill="none" xmlns="http://www.w3.org/2000/svg">
<rect y="4" width="36" height="36" rx="18" fill="#FFECBA"/>
<path d="M13.75 1.875H11.875V26.25C11.875 26.7473 12.0725 27.2242 12.4242 27.5758C12.7758 27.9275 13.2527 28.125 13.75 28.125H38.125V26.25H13.75V1.875Z" fill="black"/>
<path d="M38.125 8.4375H31.5625V10.3125H34.9281L27.8125 17.4281L23.7906 13.3969C23.7035 13.309 23.5998 13.2393 23.4855 13.1917C23.3713 13.1441 23.2488 13.1196 23.125 13.1196C23.0012 13.1196 22.8787 13.1441 22.7645 13.1917C22.6502 13.2393 22.5465 13.309 22.4594 13.3969L15.625 20.2406L16.9469 21.5625L23.125 15.3844L27.1469 19.4156C27.234 19.5035 27.3377 19.5732 27.452 19.6208C27.5662 19.6684 27.6887 19.6929 27.8125 19.6929C27.9363 19.6929 28.0588 19.6684 28.173 19.6208C28.2873 19.5732 28.391 19.5035 28.4781 19.4156L36.25 11.6344V15H38.125V8.4375Z" fill="black"/>
</svg>
