<svg width="40" height="40" viewBox="0 0 40 40" fill="none" xmlns="http://www.w3.org/2000/svg">
<rect y="4" width="36" height="36" rx="18" fill="#E8CAFF"/>
<path d="M29.6875 28.125C28.2041 28.125 26.7541 27.6851 25.5207 26.861C24.2874 26.0369 23.3261 24.8656 22.7584 23.4951C22.1907 22.1247 22.0422 20.6167 22.3316 19.1618C22.621 17.707 23.3353 16.3706 24.3842 15.3217C25.4331 14.2728 26.7695 13.5585 28.2243 13.2691C29.6792 12.9797 31.1872 13.1282 32.5576 13.6959C33.9281 14.2636 35.0994 15.2249 35.9235 16.4582C36.7476 17.6916 37.1875 19.1416 37.1875 20.625C37.1875 22.6141 36.3973 24.5218 34.9908 25.9283C33.5843 27.3348 31.6766 28.125 29.6875 28.125ZM29.6875 15C28.575 15 27.4874 15.3299 26.5624 15.948C25.6374 16.5661 24.9164 17.4446 24.4907 18.4724C24.0649 19.5002 23.9535 20.6312 24.1706 21.7224C24.3876 22.8135 24.9234 23.8158 25.71 24.6025C26.4967 25.3892 27.499 25.9249 28.5901 26.1419C29.6813 26.359 30.8123 26.2476 31.8401 25.8218C32.8679 25.3961 33.7464 24.6751 34.3645 23.7501C34.9826 22.8251 35.3125 21.7375 35.3125 20.625C35.3125 19.1332 34.7199 17.7024 33.665 16.6475C32.6101 15.5926 31.1793 15 29.6875 15Z" fill="black"/>
<path d="M31.1781 23.4375L28.75 21.0094V16.875H30.625V20.2406L32.5 22.1156L31.1781 23.4375Z" fill="black"/>
<path d="M36.25 5.625C36.25 5.12772 36.0525 4.65081 35.7008 4.29917C35.3492 3.94754 34.8723 3.75 34.375 3.75H30.625V1.875H28.75V3.75H21.25V1.875H19.375V3.75H15.625C15.1277 3.75 14.6508 3.94754 14.2992 4.29917C13.9475 4.65081 13.75 5.12772 13.75 5.625V24.375C13.75 24.8723 13.9475 25.3492 14.2992 25.7008C14.6508 26.0525 15.1277 26.25 15.625 26.25H19.375V24.375H15.625V5.625H19.375V7.5H21.25V5.625H28.75V7.5H30.625V5.625H34.375V11.25H36.25V5.625Z" fill="black"/>
</svg>
