<svg width="40" height="40" viewBox="0 0 40 40" fill="none" xmlns="http://www.w3.org/2000/svg">
<rect y="4" width="36" height="36" rx="18" fill="#FFD3BA"/>
<path d="M28.75 8.75H21.25M28.75 13.75H21.25M28.75 18.75H23.75M16.25 3.75H33.75V26.25L32.46 25.145C32.0069 24.7567 31.4299 24.5432 30.8331 24.5432C30.2364 24.5432 29.6593 24.7567 29.2062 25.145L27.9163 26.25L26.6275 25.145C26.1743 24.7563 25.597 24.5427 25 24.5427C24.403 24.5427 23.8257 24.7563 23.3725 25.145L22.0837 26.25L20.7938 25.145C20.3407 24.7567 19.7636 24.5432 19.1669 24.5432C18.5701 24.5432 17.9931 24.7567 17.54 25.145L16.25 26.25V3.75Z" stroke="black" stroke-width="2" stroke-linecap="round" stroke-linejoin="round"/>
</svg>
