<svg width="100" height="86" viewBox="0 0 83 76" fill="none" xmlns="http://www.w3.org/2000/svg">
<rect x="12" y="14.8" width="52.2" height="52.2" rx="26.1" fill="#B4ECCD"/>
<path d="M58.0629 27.8754C59.125 26.8132 59.125 25.1059 59.125 21.6875C59.125 18.2691 59.125 16.5617 58.0629 15.4996M58.0629 27.8754C57.0007 28.9375 55.2934 28.9375 51.875 28.9375H44.625C41.2066 28.9375 39.4992 28.9375 38.4371 27.8754M58.0629 15.4996C57.0007 14.4375 55.2934 14.4375 51.875 14.4375H44.625C41.2066 14.4375 39.4992 14.4375 38.4371 15.4996M38.4371 15.4996C37.375 16.5617 37.375 18.2691 37.375 21.6875C37.375 25.1059 37.375 26.8132 38.4371 27.8754M50.0625 21.6875C50.0625 22.1682 49.8715 22.6292 49.5316 22.9691C49.1917 23.309 48.7307 23.5 48.25 23.5C47.7693 23.5 47.3083 23.309 46.9684 22.9691C46.6285 22.6292 46.4375 22.1682 46.4375 21.6875C46.4375 21.2068 46.6285 20.7458 46.9684 20.4059C47.3083 20.066 47.7693 19.875 48.25 19.875C48.7307 19.875 49.1917 20.066 49.5316 20.4059C49.8715 20.7458 50.0625 21.2068 50.0625 21.6875Z" stroke="black" stroke-width="1.5"/>
<path d="M59.125 19.875C57.6829 19.875 56.2998 19.3021 55.2801 18.2824C54.2604 17.2627 53.6875 15.8796 53.6875 14.4375M59.125 23.5C57.6829 23.5 56.2998 24.0729 55.2801 25.0926C54.2604 26.1123 53.6875 27.4954 53.6875 28.9375M37.375 19.875C38.8171 19.875 40.2002 19.3021 41.2199 18.2824C42.2396 17.2627 42.8125 15.8796 42.8125 14.4375M37.375 23.5C38.8171 23.5 40.2002 24.0729 41.2199 25.0926C42.2396 26.1123 42.8125 27.4954 42.8125 28.9375M35.5625 45.9532H39.6588C41.4894 45.9532 43.3436 46.1454 45.1253 46.5115C48.3064 47.163 51.579 47.2354 54.7859 46.7254C56.3591 46.4716 57.9034 46.0819 59.3026 45.4077C60.5641 44.7969 62.1102 43.9396 63.1488 42.9771C64.1855 42.0165 65.2658 40.4451 66.0306 39.2162C66.6904 38.1613 66.3714 36.869 65.331 36.0842C64.7461 35.6597 64.0418 35.4312 63.3191 35.4312C62.5964 35.4312 61.8922 35.6597 61.3073 36.0842L58.0321 38.5582C56.7633 39.5189 55.3768 40.4016 53.7256 40.6644C53.5262 40.6958 53.3178 40.7242 53.1003 40.7496M53.1003 40.7496L52.9009 40.7713M53.1003 40.7496C53.3903 40.671 53.6563 40.5215 53.8742 40.3146C54.1477 40.0786 54.3712 39.7901 54.5312 39.4662C54.6913 39.1423 54.7847 38.7896 54.806 38.4289C54.8273 38.0682 54.776 37.707 54.6552 37.3665C54.5344 37.026 54.3464 36.7132 54.1026 36.4467C53.8664 36.1845 53.5913 35.9601 53.2869 35.7815C48.2174 32.7564 40.3276 35.0601 35.5625 38.4404M53.1003 40.7496C53.0348 40.7642 52.9679 40.7715 52.9009 40.7713M52.9009 40.7713C51.8078 40.8809 50.7066 40.8833 49.613 40.7786" stroke="black" stroke-width="1.5" stroke-linecap="round"/>
<path d="M35.5625 37.0938C35.5625 35.5922 34.3453 34.375 32.8438 34.375C31.3422 34.375 30.125 35.5922 30.125 37.0938V46.1562C30.125 47.6578 31.3422 48.875 32.8438 48.875C34.3453 48.875 35.5625 47.6578 35.5625 46.1562V37.0938Z" stroke="black" stroke-width="1.5"/>
</svg>
