<svg width="26" height="18" viewBox="0 0 26 18" fill="none" xmlns="http://www.w3.org/2000/svg">
<path d="M25.5 16.5062C25.5 17.1937 24.9425 17.75 24.2562 17.75H14.2437C13.9139 17.75 13.5975 17.619 13.3643 17.3857C13.131 17.1525 13 16.8361 13 16.5062C13 16.1764 13.131 15.86 13.3643 15.6268C13.5975 15.3935 13.9139 15.2625 14.2437 15.2625H24.2562C24.9437 15.2625 25.5 15.8187 25.5 16.5062ZM25.5 9C25.5 9.6875 24.9425 10.2437 24.2562 10.2437H1.74375C1.41389 10.2437 1.09753 10.1127 0.864286 9.87946C0.631038 9.64622 0.5 9.32986 0.5 9C0.5 8.67014 0.631038 8.35378 0.864286 8.12054C1.09753 7.88729 1.41389 7.75625 1.74375 7.75625H24.2562C24.9437 7.75625 25.5 8.31375 25.5 9ZM24.2562 2.7375C24.5861 2.7375 24.9025 2.60646 25.1357 2.37321C25.369 2.13997 25.5 1.82361 25.5 1.49375C25.5 1.16389 25.369 0.847534 25.1357 0.614286C24.9025 0.381037 24.5861 0.25 24.2562 0.25H9.24375C9.08042 0.25 8.91869 0.282171 8.76779 0.344675C8.61689 0.407179 8.47978 0.498793 8.36429 0.614286C8.24879 0.729779 8.15718 0.866889 8.09468 1.01779C8.03217 1.16869 8 1.33042 8 1.49375C8 1.65708 8.03217 1.81881 8.09468 1.96971C8.15718 2.12061 8.24879 2.25772 8.36429 2.37321C8.47978 2.48871 8.61689 2.58032 8.76779 2.64282C8.91869 2.70533 9.08042 2.7375 9.24375 2.7375H24.2562Z" fill="black"/>
</svg>
