<svg width="35" height="39" viewBox="0 0 35 39" fill="none" xmlns="http://www.w3.org/2000/svg">
<rect x="8" y="12" width="27" height="27" rx="5" fill="#FFCFD7"/>
<path d="M1.76471 14.0667V8.46667C1.76471 4.94613 1.76471 3.18773 2.79882 2.09387C3.83294 1 5.49529 1 8.82353 1H9.42882C10.8724 1 11.5924 1 12.2418 1.28373C12.8912 1.56747 13.4012 2.1088 14.4212 3.18773L15.5788 4.41227C16.6006 5.4912 17.1088 6.03253 17.7582 6.31627C18.4076 6.6 19.1294 6.6 20.5712 6.6H22.9412C26.2694 6.6 27.9318 6.6 28.9659 7.69387C30 8.78773 30 10.5461 30 14.0667V19.6667C30 23.1872 30 24.9456 28.9659 26.0395C27.9318 27.1333 26.2694 27.1333 22.9412 27.1333H21.1765M0 22.4667H15.8824M15.8824 22.4667L9.70588 15.9333M15.8824 22.4667L9.70588 29" stroke="black" stroke-width="2"/>
</svg>
