<svg width="35" height="37" viewBox="0 0 35 37" fill="none" xmlns="http://www.w3.org/2000/svg">
<rect x="8" y="10" width="27" height="27" rx="5" fill="#B4ECCD"/>
<path d="M20 20C20 18.6187 16.0825 17.5 11.25 17.5M20 20C20 21.3813 16.0825 22.5 11.25 22.5C6.4175 22.5 2.5 21.3813 2.5 20M20 20V26.1713C20 27.595 16.0825 28.75 11.25 28.75C6.4175 28.75 2.5 27.5963 2.5 26.1713V20M20 20C24.78 20 28.75 18.7663 28.75 17.5V5M11.25 17.5C6.4175 17.5 2.5 18.6187 2.5 20M11.25 17.5C5.7275 17.5 1.25 16.2663 1.25 15V8.75M11.25 6.25C5.7275 6.25 1.25 7.36875 1.25 8.75M1.25 8.75C1.25 10.1313 5.7275 11.25 11.25 11.25C11.25 12.5163 15.3162 13.75 20.0962 13.75C24.8762 13.75 28.75 12.5163 28.75 11.25M28.75 5C28.75 3.61875 24.875 2.5 20.0962 2.5C15.3175 2.5 11.4425 3.61875 11.4425 5M28.75 5C28.75 6.38125 24.875 7.5 20.0962 7.5C15.3175 7.5 11.4425 6.38125 11.4425 5M11.4425 5V17.7075" stroke="black" stroke-width="2"/>
</svg>
