<svg width="283" height="284" viewBox="0 0 283 284" fill="none" xmlns="http://www.w3.org/2000/svg">
<g clip-path="url(#clip0_776_405)">
<path fill-rule="evenodd" clip-rule="evenodd" d="M113.193 179.538L169.963 179.538C172.064 171.194 174.357 162.679 176.65 154.224C184.227 126.121 191.621 98.6855 191.288 80.23C191.288 29.2375 141.578 9.10515 141.578 9.10515C141.578 9.10515 91.8784 29.2476 91.8683 80.23C91.5451 98.534 98.808 125.556 106.334 153.446C108.667 162.143 111.031 170.911 113.193 179.538ZM157.559 91.9377C161.797 87.6993 164.178 81.9509 164.178 75.957C164.178 69.9632 161.797 64.2148 157.559 59.9764C153.32 55.7381 147.572 53.3571 141.578 53.357C135.584 53.357 129.836 55.7381 125.597 59.9764C121.535 64.2487 119.302 69.9393 119.376 75.8343C119.45 81.7294 121.825 87.3621 125.994 91.5309C130.163 95.6996 135.795 98.0744 141.691 98.1485C147.586 98.2226 153.286 96.0003 157.559 91.9377ZM201.217 130.909C219.35 141.425 225.744 161.921 226.734 184.791C226.766 185.859 226.547 186.92 226.096 187.889C225.645 188.858 224.974 189.709 224.136 190.372C223.298 191.035 222.316 191.494 221.269 191.71C220.223 191.927 219.14 191.896 218.107 191.62L187.267 183.973L187.287 183.912C189.156 176.487 191.439 168.002 193.742 159.396C196.389 149.577 199.066 139.607 201.217 130.909ZM95.8887 183.973L65.0488 191.62C64.016 191.894 62.9334 191.924 61.8872 191.706C60.841 191.488 59.8602 191.028 59.0232 190.364C58.1861 189.7 57.5159 188.849 57.0661 187.879C56.6162 186.91 56.3991 185.849 56.4322 184.781C57.412 161.921 63.8063 141.405 81.9486 130.899C84.0497 139.344 86.3933 148.072 88.7166 156.719L89.0702 158.042C91.4137 166.77 93.7472 175.407 95.8685 183.892L95.8887 183.973ZM162.135 209.893C158.124 205.738 152.949 202.896 147.291 201.741C141.633 200.586 135.757 201.173 130.439 203.424C125.122 205.675 120.61 209.484 117.501 214.35C114.391 219.216 112.829 224.911 113.021 230.682C113.122 235.066 114.95 240.248 116.9 244.784C119.138 249.821 121.64 254.737 124.395 259.512C127.092 264.229 129.82 268.573 131.961 271.785C132.856 273.141 133.789 274.472 134.759 275.775L135.972 277.25C136.586 277.986 137.341 278.59 138.194 279.028C139.418 279.7 140.812 279.999 142.204 279.887C143.391 279.8 144.536 279.418 145.538 278.775C146.249 278.32 146.889 277.762 147.437 277.119C147.811 276.684 148.215 276.159 148.578 275.674C149.336 274.654 150.296 273.29 151.346 271.694C153.478 268.492 156.165 264.148 158.841 259.451C161.508 254.764 164.215 249.592 166.276 244.764C168.226 240.228 170.044 235.056 170.135 230.682C170.261 226.858 169.618 223.047 168.244 219.476C166.87 215.905 164.792 212.646 162.135 209.893Z" fill="#EE2145" fill-opacity="0.1"/>
</g>
<defs>
<clipPath id="clip0_776_405">
<rect width="200" height="200" fill="white" transform="matrix(-0.707107 -0.707107 -0.707107 0.707107 283 142)"/>
</clipPath>
</defs>
</svg>
