<svg width="40" height="40" viewBox="0 0 40 40" fill="none" xmlns="http://www.w3.org/2000/svg">
<g clip-path="url(#clip0_776_410)">
<path fill-rule="evenodd" clip-rule="evenodd" d="M21.2942 10.6769L29.3228 18.7055C28.44 20.1826 27.56 21.7112 26.6885 23.2312C23.7857 28.2769 20.9514 33.2026 18.2942 35.7655C11.0828 42.9769 1.20566 38.7941 1.20566 38.7941C1.20566 38.7941 -2.97434 28.9169 4.23423 21.7055C6.77709 19.0712 11.6257 16.2769 16.6342 13.3969C18.1942 12.4969 19.7685 11.5912 21.2942 10.6769ZM15.1799 29.3398C15.1799 30.5385 14.7037 31.6882 13.8561 32.5359C13.0084 33.3836 11.8587 33.8598 10.6599 33.8598C9.46117 33.8598 8.31149 33.3836 7.46383 32.5359C6.61616 31.6882 6.13995 30.5385 6.13995 29.3398C6.16959 28.161 6.65866 27.0406 7.50283 26.2174C8.34699 25.3941 9.47942 24.9334 10.6585 24.9334C11.8376 24.9334 12.97 25.3941 13.8142 26.2174C14.6584 27.0406 15.1503 28.161 15.1799 29.3398ZM26.8657 30.0026C30.9171 31.0798 34.72 29.0855 38.0942 25.9912C38.2498 25.8446 38.369 25.6637 38.4423 25.4628C38.5155 25.262 38.5408 25.0468 38.5161 24.8345C38.4914 24.6221 38.4174 24.4185 38.3 24.2398C38.1826 24.0612 38.0251 23.9124 37.84 23.8055L32.3971 20.5255L32.3914 20.5369C31.6057 21.8512 30.7285 23.3741 29.8371 24.9169C28.8228 26.6798 27.7914 28.4683 26.8657 30.0026ZM19.4742 7.60263L16.1942 2.15977C16.087 1.97486 15.9381 1.81758 15.7593 1.70046C15.5805 1.58334 15.3768 1.50962 15.1645 1.4852C14.9522 1.46077 14.7371 1.48631 14.5364 1.55978C14.3357 1.63325 14.1549 1.75261 14.0085 1.90834C10.9142 5.27977 8.91709 9.08548 9.99709 13.1369C11.4885 12.2398 13.0542 11.3369 14.6057 10.4426L14.8428 10.3055C16.4085 9.40263 17.9599 8.5112 19.4599 7.6112L19.4742 7.60263ZM32.5085 13.3055C31.3538 13.326 30.2199 12.996 29.2564 12.3592C28.2929 11.7223 27.545 10.8085 27.1112 9.73806C26.6775 8.66764 26.5783 7.49093 26.8267 6.36301C27.0751 5.23509 27.6595 4.20892 28.5028 3.41977C29.1371 2.81406 30.1285 2.33977 31.0457 1.97406C32.0746 1.57822 33.1237 1.23679 34.1885 0.951199C35.2371 0.665485 36.2371 0.436916 36.9942 0.285488C37.3126 0.220207 37.6327 0.163994 37.9542 0.116917L38.3342 0.0797691C38.5251 0.0625648 38.7175 0.0839424 38.9 0.142628C39.1681 0.220695 39.4075 0.375656 39.5885 0.588345C39.744 0.768429 39.852 0.984489 39.9028 1.21691C39.939 1.38193 39.9505 1.55138 39.9371 1.71977C39.9285 1.83406 39.9114 1.96548 39.8942 2.08548C39.8571 2.33691 39.8 2.66549 39.7228 3.03977C39.5714 3.79406 39.3371 4.78835 39.0514 5.8312C38.7657 6.8712 38.4171 7.98549 38.0257 8.95977C37.66 9.87691 37.1857 10.8655 36.58 11.4969C36.057 12.0556 35.4271 12.5036 34.7277 12.8143C34.0284 13.125 33.2737 13.292 32.5085 13.3055Z" fill="#EE2145" fill-opacity="0.2"/>
</g>
<defs>
<clipPath id="clip0_776_410">
<rect width="40" height="40" fill="white" transform="matrix(-1 0 0 -1 40 40)"/>
</clipPath>
</defs>
</svg>
