<svg width="40" height="40" viewBox="0 0 40 40" fill="none" xmlns="http://www.w3.org/2000/svg">
<g clip-path="url(#clip0_776_412)">
<path fill-rule="evenodd" clip-rule="evenodd" d="M21.2942 29.3231L29.3228 21.2945C28.44 19.8174 27.56 18.2888 26.6885 16.7688C23.7857 11.7231 20.9514 6.79737 18.2942 4.23452C11.0828 -2.97691 1.20566 1.20595 1.20566 1.20595C1.20566 1.20595 -2.97434 11.0831 4.23423 18.2945C6.77709 20.9288 11.6257 23.7231 16.6342 26.6031C18.1942 27.5031 19.7685 28.4088 21.2942 29.3231ZM15.1799 10.6602C15.1799 9.46145 14.7037 8.31177 13.8561 7.46411C13.0084 6.61644 11.8587 6.14023 10.6599 6.14023C9.46117 6.14023 8.31149 6.61644 7.46383 7.46411C6.61616 8.31177 6.13995 9.46145 6.13995 10.6602C6.16959 11.839 6.65866 12.9594 7.50283 13.7826C8.34699 14.6059 9.47942 15.0666 10.6585 15.0666C11.8376 15.0666 12.97 14.6059 13.8142 13.7826C14.6584 12.9594 15.1503 11.839 15.1799 10.6602ZM26.8657 9.99737C30.9171 8.92023 34.72 10.9145 38.0942 14.0088C38.2498 14.1554 38.369 14.3363 38.4423 14.5372C38.5155 14.738 38.5408 14.9532 38.5161 15.1655C38.4914 15.3779 38.4174 15.5815 38.3 15.7602C38.1826 15.9388 38.0251 16.0876 37.84 16.1945L32.3971 19.4745L32.3914 19.4631C31.6057 18.1488 30.7285 16.6259 29.8371 15.0831C28.8228 13.3202 27.7914 11.5317 26.8657 9.99737ZM19.4742 32.3974L16.1942 37.8402C16.087 38.0251 15.9381 38.1824 15.7593 38.2995C15.5805 38.4167 15.3768 38.4904 15.1645 38.5148C14.9522 38.5392 14.7371 38.5137 14.5364 38.4402C14.3357 38.3668 14.1549 38.2474 14.0085 38.0917C10.9142 34.7202 8.91709 30.9145 9.99709 26.8631C11.4885 27.7602 13.0542 28.6631 14.6057 29.5574L14.8428 29.6945C16.4085 30.5974 17.9599 31.4888 19.4599 32.3888L19.4742 32.3974ZM32.5085 26.6945C31.3538 26.674 30.2199 27.004 29.2564 27.6408C28.2929 28.2777 27.545 29.1915 27.1112 30.2619C26.6775 31.3324 26.5783 32.5091 26.8267 33.637C27.0751 34.7649 27.6595 35.7911 28.5028 36.5802C29.1371 37.1859 30.1285 37.6602 31.0457 38.0259C32.0746 38.4218 33.1237 38.7632 34.1885 39.0488C35.2371 39.3345 36.2371 39.5631 36.9942 39.7145C37.3126 39.7798 37.6327 39.836 37.9542 39.8831L38.3342 39.9202C38.5251 39.9374 38.7175 39.9161 38.9 39.8574C39.1681 39.7793 39.4075 39.6243 39.5885 39.4117C39.744 39.2316 39.852 39.0155 39.9028 38.7831C39.939 38.6181 39.9505 38.4486 39.9371 38.2802C39.9285 38.1659 39.9114 38.0345 39.8942 37.9145C39.8571 37.6631 39.8 37.3345 39.7228 36.9602C39.5714 36.2059 39.3371 35.2117 39.0514 34.1688C38.7657 33.1288 38.4171 32.0145 38.0257 31.0402C37.66 30.1231 37.1857 29.1345 36.58 28.5031C36.057 27.9444 35.4271 27.4964 34.7277 27.1857C34.0284 26.875 33.2737 26.708 32.5085 26.6945Z" fill="#EE2145" fill-opacity="0.2"/>
</g>
<defs>
<clipPath id="clip0_776_412">
<rect width="40" height="40" fill="white" transform="matrix(-1 0 0 1 40 0)"/>
</clipPath>
</defs>
</svg>
