<svg width="24" height="24" viewBox="0 0 24 24" fill="none" xmlns="http://www.w3.org/2000/svg">
<path d="M1.91992 3.35254C1.91992 2.56122 2.57747 1.91992 3.38879 1.91992H20.4527C21.264 1.91992 21.9215 2.56122 21.9215 3.35254V20.4889C21.9215 21.2802 21.264 21.9215 20.4527 21.9215H3.38879C2.57747 21.9215 1.91992 21.2802 1.91992 20.4889V3.35254ZM8.09917 18.6638V9.63179H5.09768V18.6638H8.09917ZM6.59905 8.39794C7.64538 8.39794 8.29668 7.70538 8.29668 6.83781C8.27793 5.95149 7.64663 5.27769 6.61905 5.27769C5.59147 5.27769 4.92016 5.95274 4.92016 6.83781C4.92016 7.70538 5.57146 8.39794 6.57904 8.39794H6.59905ZM12.7345 18.6638V13.6196C12.7345 13.3496 12.7545 13.0796 12.8345 12.887C13.0508 12.3483 13.5446 11.7895 14.3747 11.7895C15.461 11.7895 15.8948 12.617 15.8948 13.8321V18.6638H18.8963V13.4833C18.8963 10.7081 17.4162 9.41802 15.441 9.41802C13.8484 9.41802 13.1346 10.2931 12.7345 10.9094V10.9406H12.7145L12.7345 10.9094V9.63179H9.7343C9.7718 10.4794 9.7343 18.6638 9.7343 18.6638H12.7345Z" fill="#BC203B"/>
</svg>
