<svg width="283" height="283" viewBox="0 0 283 283" fill="none" xmlns="http://www.w3.org/2000/svg">
<g clip-path="url(#clip0_1303_12)">
<path fill-rule="evenodd" clip-rule="evenodd" d="M113.035 178.959L169.806 178.959C171.907 170.616 174.2 162.1 176.493 153.645C184.069 125.543 191.464 98.1069 191.13 79.6514C191.13 28.6589 141.421 8.52654 141.421 8.52654C141.421 8.52654 91.721 28.669 91.711 79.6514C91.3877 97.9553 98.6507 124.977 106.176 152.867C108.51 161.565 110.874 170.333 113.035 178.959ZM157.401 91.359C161.639 87.1207 164.021 81.3723 164.021 75.3784C164.021 69.3845 161.639 63.6361 157.401 59.3978C153.163 55.1595 147.414 52.7784 141.421 52.7784C135.427 52.7784 129.678 55.1595 125.44 59.3978C121.377 63.6701 119.145 69.3607 119.219 75.2557C119.293 81.1508 121.668 86.7835 125.837 90.9522C130.005 95.121 135.638 97.4957 141.533 97.5698C147.428 97.644 153.129 95.4217 157.401 91.359ZM201.06 130.331C219.192 140.846 225.586 161.342 226.576 184.212C226.608 185.281 226.39 186.342 225.939 187.311C225.488 188.28 224.816 189.13 223.978 189.793C223.14 190.457 222.159 190.915 221.112 191.132C220.065 191.348 218.982 191.317 217.95 191.041L187.11 183.394L187.13 183.333C188.999 175.909 191.282 167.424 193.585 158.817C196.231 148.998 198.908 139.028 201.06 130.331ZM95.7314 183.394L64.8914 191.041C63.8587 191.316 62.776 191.345 61.7298 191.127C60.6836 190.909 59.7029 190.45 58.8658 189.785C58.0288 189.121 57.3586 188.27 56.9087 187.301C56.4588 186.331 56.2418 185.27 56.2748 184.202C57.2547 161.342 63.6489 140.826 81.7913 130.321C83.8924 138.766 86.2359 147.493 88.5593 156.14L88.9128 157.463C91.2564 166.191 93.5898 174.828 95.7112 183.313L95.7314 183.394ZM161.977 209.315C157.967 205.159 152.792 202.317 147.133 201.162C141.475 200.007 135.6 200.594 130.282 202.845C124.964 205.096 120.453 208.906 117.344 213.772C114.234 218.638 112.672 224.332 112.864 230.104C112.965 234.488 114.793 239.67 116.743 244.205C118.981 249.243 121.483 254.159 124.238 258.933C126.935 263.651 129.662 267.994 131.804 271.207C132.699 272.563 133.632 273.893 134.602 275.197L135.814 276.672C136.428 277.407 137.184 278.012 138.037 278.449C139.261 279.121 140.655 279.42 142.047 279.308C143.233 279.221 144.379 278.839 145.38 278.197C146.092 277.741 146.732 277.183 147.279 276.54C147.653 276.106 148.057 275.581 148.421 275.096C149.179 274.075 150.138 272.712 151.189 271.116C153.32 267.914 156.007 263.57 158.684 258.873C161.351 254.186 164.058 249.014 166.119 244.185C168.068 239.649 169.887 234.477 169.978 230.103C170.104 226.279 169.461 222.468 168.087 218.897C166.712 215.326 164.635 212.067 161.977 209.315Z" fill="#EE2145" fill-opacity="0.1"/>
</g>
<defs>
<clipPath id="clip0_1303_12">
<rect width="200" height="200" fill="white" transform="matrix(-0.707107 -0.707107 -0.707107 0.707107 282.843 141.421)"/>
</clipPath>
</defs>
</svg>
