<svg width="40" height="40" viewBox="0 0 40 40" fill="none" xmlns="http://www.w3.org/2000/svg">
<g clip-path="url(#clip0_1303_8)">
<path fill-rule="evenodd" clip-rule="evenodd" d="M18.7056 29.3231L10.6771 21.2945C11.5599 19.8174 12.4399 18.2888 13.3114 16.7688C16.2142 11.7231 19.0485 6.79737 21.7056 4.23452C28.9171 -2.97691 38.7942 1.20595 38.7942 1.20595C38.7942 1.20595 42.9742 11.0831 35.7656 18.2945C33.2228 20.9288 28.3742 23.7231 23.3656 26.6031C21.8056 27.5031 20.2314 28.4088 18.7056 29.3231ZM24.8199 10.6602C24.8199 9.46145 25.2961 8.31177 26.1438 7.46411C26.9915 6.61644 28.1412 6.14023 29.3399 6.14023C30.5387 6.14023 31.6884 6.61644 32.5361 7.46411C33.3837 8.31177 33.8599 9.46145 33.8599 10.6602C33.8303 11.839 33.3412 12.9594 32.497 13.7826C31.6529 14.6059 30.5205 15.0666 29.3414 15.0666C28.1623 15.0666 27.0298 14.6059 26.1857 13.7826C25.3415 12.9594 24.8496 11.839 24.8199 10.6602ZM13.1342 9.99737C9.08278 8.92023 5.27993 10.9145 1.90564 14.0088C1.75003 14.1554 1.63085 14.3363 1.55761 14.5372C1.48436 14.738 1.45908 14.9532 1.48378 15.1655C1.50849 15.3779 1.58249 15.5815 1.69989 15.7602C1.81729 15.9388 1.97482 16.0876 2.15993 16.1945L7.60278 19.4745L7.6085 19.4631C8.39421 18.1488 9.27136 16.6259 10.1628 15.0831C11.1771 13.3202 12.2085 11.5317 13.1342 9.99737ZM20.5256 32.3974L23.8056 37.8402C23.9128 38.0251 24.0618 38.1824 24.2406 38.2995C24.4193 38.4167 24.623 38.4904 24.8354 38.5148C25.0477 38.5392 25.2628 38.5137 25.4635 38.4402C25.6642 38.3668 25.845 38.2474 25.9914 38.0917C29.0856 34.7202 31.0828 30.9145 30.0028 26.8631C28.5114 27.7602 26.9456 28.6631 25.3942 29.5574L25.1571 29.6945C23.5914 30.5974 22.0399 31.4888 20.5399 32.3888L20.5256 32.3974ZM7.49136 26.6945C8.64612 26.674 9.77999 27.004 10.7435 27.6408C11.707 28.2777 12.4549 29.1915 12.8886 30.2619C13.3224 31.3324 13.4216 32.5091 13.1732 33.637C12.9247 34.7649 12.3404 35.7911 11.4971 36.5802C10.8628 37.1859 9.87136 37.6602 8.95421 38.0259C7.92526 38.4218 6.87619 38.7632 5.81135 39.0488C4.76278 39.3345 3.76278 39.5631 3.00564 39.7145C2.6873 39.7798 2.36717 39.836 2.04564 39.8831L1.66564 39.9202C1.47476 39.9374 1.28237 39.9161 1.09993 39.8574C0.831767 39.7793 0.592374 39.6243 0.411354 39.4117C0.255887 39.2316 0.147856 39.0155 0.0970686 38.7831C0.0609266 38.6181 0.0493732 38.4486 0.0627829 38.2802C0.0713543 38.1659 0.0884972 38.0345 0.10564 37.9145C0.142783 37.6631 0.199926 37.3345 0.277069 36.9602C0.428497 36.2059 0.662783 35.2117 0.948497 34.1688C1.23421 33.1288 1.58278 32.0145 1.97421 31.0402C2.33993 30.1231 2.81421 29.1345 3.41993 28.5031C3.94288 27.9444 4.57274 27.4964 5.27213 27.1857C5.97152 26.875 6.72619 26.708 7.49136 26.6945Z" fill="#EE2145" fill-opacity="0.2"/>
</g>
<defs>
<clipPath id="clip0_1303_8">
<rect width="40" height="40" fill="white"/>
</clipPath>
</defs>
</svg>
