<svg width="40" height="40" viewBox="0 0 40 40" fill="none" xmlns="http://www.w3.org/2000/svg">
<rect y="4" width="36" height="36" rx="18" fill="#F9E7EA"/>
<path d="M19.375 1.875V8.4375H21.25V3.75H23.125V4.6875H25V3.75H33.4375V4.6875H35.3125V3.75H37.1875V15H35.3125V14.0625H33.4375V16.875H39.0625V1.875H19.375ZM23.125 6.5625V8.4375H25V6.5625H23.125ZM33.4375 6.5625V8.4375H35.3125V6.5625H33.4375ZM11.875 10.3125V27.1875H31.5625V10.3125H11.875ZM33.4375 10.3125V12.1875H35.3125V10.3125H33.4375ZM13.75 12.1875H29.6875V21.3572L27.2556 18.9262L26.5825 18.2812L23.9453 20.9184L19.9319 16.875L19.2869 16.2009L13.75 21.7387V12.1875ZM24.5312 14.0625C24.3436 14.0576 24.1568 14.0903 23.982 14.1587C23.8072 14.2271 23.6479 14.3298 23.5134 14.4608C23.3789 14.5918 23.272 14.7484 23.199 14.9213C23.1259 15.0943 23.0883 15.2801 23.0882 15.4678C23.0882 15.6555 23.1257 15.8414 23.1986 16.0144C23.2715 16.1874 23.3783 16.344 23.5127 16.4751C23.6471 16.6061 23.8064 16.709 23.9811 16.7775C24.1559 16.846 24.3426 16.8788 24.5303 16.8741C24.8969 16.8647 25.2453 16.7126 25.5013 16.4501C25.7573 16.1875 25.9006 15.8354 25.9007 15.4687C25.9009 15.1021 25.7577 14.7498 25.5019 14.4872C25.2461 14.2245 24.8978 14.0721 24.5312 14.0625ZM19.285 18.8672L23.9725 23.5547L24.6194 22.8806L26.5825 20.9184L29.6875 24.0234V25.3125H13.75V24.4041L19.285 18.8672Z" fill="black"/>
</svg>
