<svg width="40" height="40" viewBox="0 0 40 40" fill="none" xmlns="http://www.w3.org/2000/svg">
<rect y="4" width="36" height="36" rx="18" fill="#B4ECCD"/>
<path d="M31.7675 13.0175C32.5 12.285 32.5 11.1075 32.5 8.75C32.5 6.3925 32.5 5.215 31.7675 4.4825M31.7675 13.0175C31.035 13.75 29.8575 13.75 27.5 13.75H22.5C20.1425 13.75 18.965 13.75 18.2325 13.0175M31.7675 4.4825C31.035 3.75 29.8575 3.75 27.5 3.75H22.5C20.1425 3.75 18.965 3.75 18.2325 4.4825M18.2325 4.4825C17.5 5.215 17.5 6.3925 17.5 8.75C17.5 11.1075 17.5 12.285 18.2325 13.0175M26.25 8.75C26.25 9.08152 26.1183 9.39946 25.8839 9.63388C25.6495 9.8683 25.3315 10 25 10C24.6685 10 24.3505 9.8683 24.1161 9.63388C23.8817 9.39946 23.75 9.08152 23.75 8.75C23.75 8.41848 23.8817 8.10054 24.1161 7.86612C24.3505 7.6317 24.6685 7.5 25 7.5C25.3315 7.5 25.6495 7.6317 25.8839 7.86612C26.1183 8.10054 26.25 8.41848 26.25 8.75Z" stroke="black" stroke-width="1.5"/>
<path d="M32.5 7.5C31.5054 7.5 30.5516 7.10491 29.8483 6.40165C29.1451 5.69839 28.75 4.74456 28.75 3.75M32.5 10C31.5054 10 30.5516 10.3951 29.8483 11.0983C29.1451 11.8016 28.75 12.7554 28.75 13.75M17.5 7.5C18.4946 7.5 19.4484 7.10491 20.1517 6.40165C20.8549 5.69839 21.25 4.74456 21.25 3.75M17.5 10C18.4946 10 19.4484 10.3951 20.1517 11.0983C20.8549 11.8016 21.25 12.7554 21.25 13.75M16.25 25.485H19.075C20.3375 25.485 21.6163 25.6175 22.845 25.87C25.0389 26.3193 27.2959 26.3693 29.5075 26.0175C30.5925 25.8425 31.6575 25.5737 32.6225 25.1087C33.4925 24.6875 34.5587 24.0963 35.275 23.4325C35.99 22.77 36.735 21.6862 37.2625 20.8387C37.7175 20.1112 37.4975 19.22 36.78 18.6787C36.3766 18.386 35.8909 18.2284 35.3925 18.2284C34.8941 18.2284 34.4084 18.386 34.005 18.6787L31.7462 20.385C30.8712 21.0475 29.915 21.6562 28.7762 21.8375C28.6387 21.8592 28.495 21.8788 28.345 21.8963M28.345 21.8963L28.2075 21.9112M28.345 21.8963C28.545 21.842 28.7285 21.739 28.8787 21.5963C29.0674 21.4335 29.2215 21.2345 29.3319 21.0112C29.4423 20.7878 29.5067 20.5445 29.5214 20.2958C29.5361 20.0471 29.5007 19.7979 29.4174 19.5631C29.334 19.3283 29.2044 19.1126 29.0363 18.9287C28.8734 18.7479 28.6836 18.5932 28.4738 18.47C24.9775 16.3837 19.5362 17.9725 16.25 20.3038M28.345 21.8963C28.2999 21.9063 28.2537 21.9114 28.2075 21.9112M28.2075 21.9112C27.4536 21.9868 26.6942 21.9885 25.94 21.9163" stroke="black" stroke-width="1.5" stroke-linecap="round"/>
<path d="M16.25 19.375C16.25 18.3395 15.4105 17.5 14.375 17.5C13.3395 17.5 12.5 18.3395 12.5 19.375V25.625C12.5 26.6605 13.3395 27.5 14.375 27.5C15.4105 27.5 16.25 26.6605 16.25 25.625V19.375Z" stroke="black" stroke-width="1.5"/>
</svg>
