<svg width="40" height="40" viewBox="0 0 40 40" fill="none" xmlns="http://www.w3.org/2000/svg">
<g clip-path="url(#clip0_1303_4)">
<path fill-rule="evenodd" clip-rule="evenodd" d="M18.7056 10.6769L10.6771 18.7055C11.5599 20.1826 12.4399 21.7112 13.3114 23.2312C16.2142 28.2769 19.0485 33.2026 21.7056 35.7655C28.9171 42.9769 38.7942 38.7941 38.7942 38.7941C38.7942 38.7941 42.9742 28.9169 35.7656 21.7055C33.2228 19.0712 28.3742 16.2769 23.3656 13.3969C21.8056 12.4969 20.2314 11.5912 18.7056 10.6769ZM24.8199 29.3398C24.8199 30.5385 25.2961 31.6882 26.1438 32.5359C26.9915 33.3836 28.1412 33.8598 29.3399 33.8598C30.5387 33.8598 31.6884 33.3836 32.5361 32.5359C33.3837 31.6882 33.8599 30.5385 33.8599 29.3398C33.8303 28.161 33.3412 27.0406 32.497 26.2174C31.6529 25.3941 30.5205 24.9334 29.3414 24.9334C28.1623 24.9334 27.0298 25.3941 26.1857 26.2174C25.3415 27.0406 24.8496 28.161 24.8199 29.3398ZM13.1342 30.0026C9.08278 31.0798 5.27993 29.0855 1.90564 25.9912C1.75003 25.8446 1.63085 25.6637 1.55761 25.4628C1.48436 25.262 1.45908 25.0468 1.48378 24.8345C1.50849 24.6221 1.58249 24.4185 1.69989 24.2398C1.81729 24.0612 1.97482 23.9124 2.15993 23.8055L7.60278 20.5255L7.6085 20.5369C8.39421 21.8512 9.27136 23.3741 10.1628 24.9169C11.1771 26.6798 12.2085 28.4683 13.1342 30.0026ZM20.5256 7.60263L23.8056 2.15977C23.9128 1.97487 24.0618 1.81758 24.2406 1.70046C24.4193 1.58334 24.623 1.50962 24.8354 1.4852C25.0477 1.46077 25.2628 1.48631 25.4635 1.55978C25.6642 1.63325 25.845 1.75261 25.9914 1.90834C29.0856 5.27977 31.0828 9.08548 30.0028 13.1369C28.5114 12.2398 26.9456 11.3369 25.3942 10.4426L25.1571 10.3055C23.5914 9.40263 22.0399 8.5112 20.5399 7.6112L20.5256 7.60263ZM7.49136 13.3055C8.64612 13.326 9.77999 12.996 10.7435 12.3592C11.707 11.7223 12.4549 10.8085 12.8886 9.73806C13.3224 8.66764 13.4216 7.49093 13.1732 6.36301C12.9247 5.23509 12.3404 4.20892 11.4971 3.41977C10.8628 2.81406 9.87136 2.33977 8.95421 1.97406C7.92526 1.57822 6.87619 1.23679 5.81135 0.9512C4.76278 0.665486 3.76278 0.436915 3.00564 0.285487C2.6873 0.220209 2.36717 0.163995 2.04564 0.116915L1.66564 0.079771C1.47476 0.062564 1.28237 0.0839415 1.09993 0.142629C0.831767 0.220697 0.592374 0.375657 0.411354 0.588344C0.255887 0.768429 0.147856 0.984488 0.0970686 1.21691C0.0609266 1.38193 0.0493732 1.55138 0.0627829 1.71977C0.0713543 1.83406 0.0884972 1.96548 0.10564 2.08548C0.142783 2.33691 0.199926 2.66549 0.277069 3.03977C0.428497 3.79406 0.662783 4.78834 0.948497 5.8312C1.23421 6.8712 1.58278 7.98548 1.97421 8.95977C2.33993 9.87691 2.81421 10.8655 3.41993 11.4969C3.94288 12.0556 4.57274 12.5036 5.27213 12.8143C5.97152 13.125 6.72619 13.292 7.49136 13.3055Z" fill="#EE2145" fill-opacity="0.2"/>
</g>
<defs>
<clipPath id="clip0_1303_4">
<rect width="40" height="40" fill="white" transform="matrix(1 0 0 -1 0 40)"/>
</clipPath>
</defs>
</svg>
