<svg width="20" height="20" viewBox="0 0 20 20" fill="none" xmlns="http://www.w3.org/2000/svg">
<path d="M9.99995 16.8C6.23995 16.8 3.19995 13.76 3.19995 10C3.19995 6.24001 6.23995 3.20001 9.99995 3.20001C13.76 3.20001 16.8 6.24001 16.8 10C16.8 13.76 13.76 16.8 9.99995 16.8ZM9.99995 4.00001C6.67995 4.00001 3.99995 6.68001 3.99995 10C3.99995 13.32 6.67995 16 9.99995 16C13.32 16 16 13.32 16 10C16 6.68001 13.32 4.00001 9.99995 4.00001Z" fill="black"/>
<path d="M6.40002 9.60001H13.6V10.4H6.40002V9.60001Z" fill="black"/>
<path d="M9.59998 6.39999H10.4V13.6H9.59998V6.39999Z" fill="black"/>
</svg>
