<svg width="38" height="36" viewBox="0 0 38 36" fill="none" xmlns="http://www.w3.org/2000/svg">
<rect width="37.168" height="35.4108" rx="17.7054" fill="white" fill-opacity="0.2"/>
<path d="M21.9859 9.20639L14.2129 17.1804C14.0764 17.3204 14 17.5083 14 17.7039C14 17.8995 14.0764 18.0873 14.2129 18.2274L21.9859 26.2044C22.0495 26.2697 22.1256 26.3216 22.2095 26.3571C22.2935 26.3925 22.3838 26.4108 22.4749 26.4108C22.5661 26.4108 22.6563 26.3925 22.7403 26.3571C22.8243 26.3216 22.9003 26.2697 22.9639 26.2044C23.0948 26.0704 23.168 25.8906 23.168 25.7034C23.168 25.5161 23.0948 25.3363 22.9639 25.2024L15.6544 17.7039L22.9639 10.2069C23.0943 10.073 23.1673 9.89352 23.1673 9.70664C23.1673 9.51975 23.0943 9.34026 22.9639 9.20639C22.9003 9.14107 22.8243 9.08916 22.7403 9.05371C22.6563 9.01826 22.5661 9 22.4749 9C22.3838 9 22.2935 9.01826 22.2095 9.05371C22.1256 9.08916 22.0495 9.14107 21.9859 9.20639Z" fill="white"/>
</svg>
