<svg width="38" height="36" viewBox="0 0 38 36" fill="none" xmlns="http://www.w3.org/2000/svg">
<rect width="37.168" height="35.4108" rx="17.7054" transform="matrix(-1 0 0 1 37.3359 0)" fill="white" fill-opacity="0.2"/>
<path d="M15.35 9.20639L23.123 17.1804C23.2595 17.3204 23.3359 17.5083 23.3359 17.7039C23.3359 17.8995 23.2595 18.0873 23.123 18.2274L15.35 26.2044C15.2864 26.2697 15.2104 26.3216 15.1264 26.3571C15.0424 26.3925 14.9522 26.4108 14.861 26.4108C14.7699 26.4108 14.6796 26.3925 14.5956 26.3571C14.5116 26.3216 14.4356 26.2697 14.372 26.2044C14.2412 26.0704 14.1679 25.8906 14.1679 25.7034C14.1679 25.5161 14.2412 25.3363 14.372 25.2024L21.6815 17.7039L14.372 10.2069C14.2416 10.073 14.1686 9.89352 14.1686 9.70664C14.1686 9.51975 14.2416 9.34026 14.372 9.20639C14.4356 9.14107 14.5116 9.08916 14.5956 9.05371C14.6796 9.01826 14.7699 9 14.861 9C14.9522 9 15.0424 9.01826 15.1264 9.05371C15.2104 9.08916 15.2864 9.14107 15.35 9.20639Z" fill="white"/>
</svg>
